<svg width="40" height="40" viewBox="0 0 40 40" fill="none" xmlns="http://www.w3.org/2000/svg">
<mask id="mask0_127_266" style="mask-type:alpha" maskUnits="userSpaceOnUse" x="0" y="0" width="40" height="40">
<rect width="40" height="40" fill="#D9D9D9"/>
</mask>
<g mask="url(#mask0_127_266)">
<path d="M10.9166 35L20 25.9446L29.0554 35H10.9166ZM3.33331 28.8887V7.77792C3.33331 7.02792 3.60873 6.37736 4.15956 5.82625C4.71067 5.27542 5.36123 5 6.11123 5H33.8887C34.6387 5 35.2893 5.27542 35.8404 5.82625C36.3912 6.37736 36.6666 7.02792 36.6666 7.77792V28.8887C36.6666 29.6526 36.3947 30.3067 35.8508 30.8508C35.3066 31.3947 34.6526 31.6667 33.8887 31.6667H28.8887V28.8887H33.8887V7.77792H6.11123V28.8887H11.0833V31.6667H6.11123C5.34734 31.6667 4.69331 31.3947 4.14915 30.8508C3.60526 30.3067 3.33331 29.6526 3.33331 28.8887Z" fill="#1C1B1F"/>
</g>
</svg>
