<svg width="40" height="40" viewBox="0 0 40 40" fill="none" xmlns="http://www.w3.org/2000/svg">
<mask id="mask0_127_134" style="mask-type:alpha" maskUnits="userSpaceOnUse" x="0" y="0" width="40" height="40">
<rect width="40" height="40" fill="#D9D9D9"/>
</mask>
<g mask="url(#mask0_127_134)">
<path d="M11.9721 28.6952C10.8426 29.6488 9.66442 30.0793 8.43747 29.9868C7.21053 29.894 6.14345 29.4681 5.23622 28.7089C4.32872 27.9497 3.71984 26.966 3.40956 25.7577C3.09956 24.5493 3.32872 23.3063 4.09706 22.0285L7.41664 16.5006C6.68525 15.9081 6.10428 15.1753 5.67372 14.3022C5.24317 13.4295 5.02789 12.4863 5.02789 11.4727C5.02789 9.68516 5.66428 8.15502 6.93706 6.88224C8.21011 5.60918 9.74039 4.97266 11.5279 4.97266C13.3154 4.97266 14.8455 5.60918 16.1183 6.88224C17.3914 8.15502 18.0279 9.68516 18.0279 11.4727C18.0279 13.2602 17.3914 14.7904 16.1183 16.0635C14.8455 17.3363 13.3154 17.9727 11.5279 17.9727C11.2446 17.9727 10.9612 17.9542 10.6779 17.9172C10.3946 17.8803 10.1269 17.8247 9.87497 17.7506L6.47206 23.4727C6.11095 24.0654 5.99692 24.6475 6.12997 25.2189C6.26275 25.7903 6.54511 26.2556 6.97706 26.6147C7.409 26.9739 7.91664 27.1743 8.49997 27.216C9.08331 27.2577 9.63886 27.0563 10.1666 26.6118L28.0279 11.2643C29.1573 10.3107 30.3425 9.87793 31.5833 9.96599C32.8241 10.0538 33.8982 10.4774 34.8054 11.2368C35.7129 11.996 36.3194 12.9843 36.625 14.2018C36.9305 15.4196 36.699 16.6674 35.9304 17.9452L32.6387 23.4727C33.3704 24.0654 33.9515 24.7982 34.3821 25.671C34.8126 26.5438 35.0279 27.487 35.0279 28.5006C35.0279 30.2881 34.3886 31.8183 33.11 33.0914C31.8314 34.3642 30.2943 35.0006 28.4987 35.0006C26.7032 35.0006 25.1758 34.3642 23.9166 33.0914C22.6575 31.8183 22.0279 30.2881 22.0279 28.5006C22.0279 26.7131 22.6575 25.1829 23.9166 23.9102C25.1758 22.6371 26.7036 22.0006 28.5 22.0006C28.7819 22.0006 29.0561 22.0145 29.3225 22.0422C29.5889 22.07 29.8518 22.121 30.1112 22.1952L33.5279 16.5006C33.889 15.9081 34.003 15.3261 33.87 14.7547C33.7372 14.1833 33.4548 13.7181 33.0229 13.3589C32.5909 12.9997 32.0833 12.7993 31.5 12.7577C30.9166 12.716 30.3611 12.9174 29.8333 13.3618L11.9721 28.6952ZM11.5321 15.1952C12.5571 15.1952 13.4329 14.8302 14.1596 14.1002C14.8865 13.3704 15.25 12.4932 15.25 11.4685C15.25 10.4435 14.8851 9.56765 14.1554 8.84099C13.4254 8.11404 12.548 7.75057 11.5233 7.75057C10.4986 7.75057 9.62275 8.11543 8.89581 8.84516C8.16886 9.57516 7.80539 10.4525 7.80539 11.4772C7.80539 12.502 8.17039 13.3778 8.90039 14.1047C9.63011 14.8317 10.5073 15.1952 11.5321 15.1952ZM28.5037 32.2227C29.534 32.2227 30.4159 31.8578 31.1496 31.1281C31.8832 30.3983 32.25 29.521 32.25 28.496C32.25 27.4713 31.8832 26.5954 31.1496 25.8685C30.4159 25.1418 29.534 24.7785 28.5037 24.7785C27.4734 24.7785 26.5996 25.1434 25.8821 25.8731C25.1643 26.6028 24.8054 27.4802 24.8054 28.5052C24.8054 29.5299 25.1643 30.4057 25.8821 31.1327C26.5996 31.8593 27.4734 32.2227 28.5037 32.2227Z" fill="#1C1B1F"/>
</g>
</svg>
