<svg width="40" height="40" viewBox="0 0 40 40" fill="none" xmlns="http://www.w3.org/2000/svg">
<mask id="mask0_5_13" style="mask-type:alpha" maskUnits="userSpaceOnUse" x="0" y="0" width="40" height="40">
<rect width="40" height="40" fill="#D9D9D9"/>
</mask>
<g mask="url(#mask0_5_13)">
<path d="M17.5833 27.6139L29.3612 15.8359L27.3053 13.808L17.5833 23.5305L12.6666 18.6139L10.6387 20.6414L17.5833 27.6139ZM19.9999 36.6693C17.713 36.6693 15.5556 36.2318 13.5278 35.3568C11.5001 34.4818 9.73145 33.2897 8.222 31.7805C6.71284 30.2711 5.52075 28.5025 4.64575 26.4747C3.77075 24.4469 3.33325 22.2896 3.33325 20.0026C3.33325 17.6971 3.77075 15.5304 4.64575 13.5026C5.52075 11.4748 6.71284 9.71094 8.222 8.21094C9.73145 6.71094 11.5001 5.52344 13.5278 4.64844C15.5556 3.77344 17.713 3.33594 19.9999 3.33594C22.3055 3.33594 24.4721 3.77344 26.4999 4.64844C28.5277 5.52344 30.2916 6.71094 31.7916 8.21094C33.2916 9.71094 34.4791 11.4748 35.3541 13.5026C36.2291 15.5304 36.6666 17.6971 36.6666 20.0026C36.6666 22.2896 36.2291 24.4469 35.3541 26.4747C34.4791 28.5025 33.2916 30.2711 31.7916 31.7805C30.2916 33.2897 28.5277 34.4818 26.4999 35.3568C24.4721 36.2318 22.3055 36.6693 19.9999 36.6693ZM19.9999 33.8914C23.8702 33.8914 27.1526 32.5396 29.847 29.8359C32.5415 27.1323 33.8887 23.8545 33.8887 20.0026C33.8887 16.1323 32.5415 12.85 29.847 10.1555C27.1526 7.46108 23.8702 6.11385 19.9999 6.11385C16.148 6.11385 12.8702 7.46108 10.1666 10.1555C7.46297 12.85 6.11117 16.1323 6.11117 20.0026C6.11117 23.8545 7.46297 27.1323 10.1666 29.8359C12.8702 32.5396 16.148 33.8914 19.9999 33.8914Z" fill="#005BAC"/>
</g>
</svg>
