<svg width="41" height="40" viewBox="0 0 41 40" fill="none" xmlns="http://www.w3.org/2000/svg">
<mask id="mask0_127_257" style="mask-type:alpha" maskUnits="userSpaceOnUse" x="0" y="0" width="41" height="40">
<rect x="0.5" width="40" height="40" fill="#D9D9D9"/>
</mask>
<g mask="url(#mask0_127_257)">
<path d="M20.9513 25.5977C22.8263 25.5977 24.4165 24.9998 25.7221 23.804C27.0276 22.6082 27.6804 21.1598 27.6804 19.459C27.6804 17.9682 27.2006 16.6973 26.2408 15.6465C25.2811 14.5957 24.1175 14.0702 22.75 14.0702C21.5369 14.0702 20.5022 14.4637 19.6458 15.2507C18.7894 16.0376 18.3613 16.9969 18.3613 18.1286C18.3613 18.6175 18.4561 19.0933 18.6458 19.5561C18.8356 20.0191 19.1157 20.4497 19.4863 20.8477L21.5 18.8894C21.3797 18.8061 21.2894 18.7019 21.2292 18.5769C21.1689 18.4519 21.1388 18.3154 21.1388 18.1673C21.1388 17.8062 21.2824 17.503 21.5696 17.2577C21.8565 17.0122 22.25 16.8894 22.75 16.8894C23.3611 16.8894 23.8796 17.1372 24.3054 17.6327C24.7315 18.128 24.9446 18.7507 24.9446 19.5007C24.9446 20.4393 24.5672 21.2341 23.8125 21.8852C23.0578 22.5363 22.1203 22.8619 21 22.8619C19.6167 22.8619 18.4468 22.3109 17.4904 21.209C16.5337 20.107 16.0554 18.7498 16.0554 17.1373C16.0554 16.287 16.2129 15.48 16.5279 14.7161C16.8426 13.9522 17.2963 13.2738 17.8888 12.6811L15.9029 10.6952C15.051 11.5191 14.3935 12.4847 13.9304 13.5919C13.4676 14.6988 13.2363 15.86 13.2363 17.0752C13.2363 19.4513 13.9863 21.4658 15.4863 23.1186C16.9865 24.7713 18.8082 25.5977 20.9513 25.5977ZM10.5 36.6673V29.5007C8.91667 28.0562 7.6875 26.3687 6.8125 24.4382C5.9375 22.5076 5.5 20.4729 5.5 18.334C5.5 14.1673 6.95833 10.6257 9.875 7.70898C12.7917 4.79232 16.3333 3.33398 20.5 3.33398C23.9722 3.33398 27.0486 4.35482 29.7292 6.39648C32.4097 8.43815 34.1528 11.0979 34.9583 14.3757L37.2083 23.2786C37.3286 23.7136 37.2499 24.1094 36.9721 24.4661C36.6943 24.8225 36.324 25.0007 35.8612 25.0007H32.1667V30.5561C32.1667 31.32 31.8947 31.974 31.3508 32.5182C30.8067 33.062 30.1526 33.334 29.3888 33.334H25.5V36.6673H22.7221V30.5561H29.3888V22.2227H34.0554L32.2779 15.0702C31.6204 12.4313 30.1944 10.2786 28 8.6119C25.8056 6.94523 23.3056 6.1119 20.5 6.1119C17.1111 6.1119 14.2268 7.28774 11.8471 9.6394C9.46764 11.9913 8.27792 14.8575 8.27792 18.2377C8.27792 19.9863 8.635 21.6475 9.34917 23.2211C10.0636 24.7947 11.0768 26.1934 12.3887 27.4173L13.2779 28.2507V36.6673H10.5Z" fill="#1C1B1F"/>
</g>
</svg>
