<svg width="40" height="40" viewBox="0 0 40 40" fill="none" xmlns="http://www.w3.org/2000/svg">
<mask id="mask0_120_2646" style="mask-type:alpha" maskUnits="userSpaceOnUse" x="0" y="0" width="40" height="40">
<rect width="40" height="40" fill="#D9D9D9"/>
</mask>
<g mask="url(#mask0_120_2646)">
<path d="M25 28.3327H10.8334V25.5548H18.8054C18.2493 24.9742 17.8025 24.3337 17.465 23.6331C17.1272 22.9328 16.8982 22.1845 16.7779 21.3881H7.50002V18.6106H16.7792C16.9172 17.8142 17.1552 17.0664 17.4929 16.3673C17.831 15.6684 18.2685 15.0273 18.8054 14.4439H6.66669V11.666H25C27.3056 11.666 29.2709 12.4785 30.8959 14.1035C32.5209 15.7285 33.3334 17.6938 33.3334 19.9993C33.3334 22.3049 32.5209 24.2702 30.8959 25.8952C29.2709 27.5202 27.3056 28.3327 25 28.3327ZM24.9934 25.5548C26.5347 25.5548 27.8471 25.0153 28.9304 23.9364C30.0138 22.8575 30.5554 21.5474 30.5554 20.006C30.5554 18.4646 30.016 17.1523 28.9371 16.0689C27.8582 14.9856 26.5481 14.4439 25.0067 14.4439C23.4653 14.4439 22.1529 14.9834 21.0696 16.0623C19.9863 17.1412 19.4446 18.4513 19.4446 19.9927C19.4446 21.5341 19.984 22.8464 21.0629 23.9298C22.1418 25.0131 23.452 25.5548 24.9934 25.5548ZM6.66669 28.3327V25.5548H9.4446V28.3327H6.66669Z" fill="#1C1B1F"/>
</g>
</svg>
