<svg width="40" height="40" viewBox="0 0 40 40" fill="none" xmlns="http://www.w3.org/2000/svg">
<mask id="mask0_177_25" style="mask-type:alpha" maskUnits="userSpaceOnUse" x="0" y="0" width="40" height="40">
<rect width="40" height="40" fill="#D9D9D9"/>
</mask>
<g mask="url(#mask0_177_25)">
<path d="M19.9999 36.6673C17.6852 36.6673 15.5139 36.2298 13.4862 35.3548C11.4584 34.4798 9.69214 33.29 8.18742 31.7852C6.6827 30.2808 5.49756 28.51 4.632 26.4727C3.76617 24.4358 3.33325 22.26 3.33325 19.9452C3.33325 17.6211 3.76617 15.452 4.632 13.4382C5.49756 11.4243 6.6827 9.66496 8.18742 8.16024C9.69214 6.65579 11.4584 5.47524 13.4862 4.61857C15.5139 3.76218 17.6852 3.33398 19.9999 3.33398C22.3241 3.33398 24.4977 3.76218 26.5208 4.61857C28.5438 5.47524 30.3077 6.65579 31.8124 8.16024C33.3171 9.66496 34.5023 11.4243 35.3678 13.4382C36.2337 15.452 36.6666 17.6211 36.6666 19.9452C36.6666 22.26 36.2337 24.4358 35.3678 26.4727C34.5023 28.51 33.3171 30.2808 31.8124 31.7852C30.3077 33.29 28.5438 34.4798 26.5208 35.3548C24.4977 36.2298 22.3241 36.6673 19.9999 36.6673ZM19.9999 33.9173C20.8888 32.9173 21.6388 31.8062 22.2499 30.584C22.861 29.3618 23.361 27.9544 23.7499 26.3619H16.2778C16.6481 27.8802 17.1388 29.2644 17.7499 30.5144C18.361 31.7644 19.111 32.8987 19.9999 33.9173ZM16.1945 33.3619C15.5648 32.3525 15.0208 31.2761 14.5624 30.1327C14.1041 28.9891 13.7221 27.7322 13.4166 26.3619H7.61117C8.58339 28.1397 9.73381 29.5748 11.0624 30.6673C12.391 31.7598 14.1017 32.658 16.1945 33.3619ZM23.8333 33.334C25.6852 32.7415 27.3449 31.848 28.8124 30.6536C30.2799 29.4591 31.472 28.0286 32.3887 26.3619H26.6112C26.287 27.7136 25.9003 28.9612 25.4512 30.1048C25.0023 31.2484 24.463 32.3248 23.8333 33.334ZM6.58325 23.584H12.8887C12.8053 22.8987 12.7521 22.2668 12.7291 21.6882C12.706 21.1095 12.6945 20.5286 12.6945 19.9452C12.6945 19.2877 12.7106 18.6882 12.7428 18.1465C12.7753 17.6048 12.8333 17.0191 12.9166 16.3894H6.58325C6.40742 17.0191 6.28478 17.6002 6.21534 18.1327C6.14589 18.665 6.11117 19.2691 6.11117 19.9452C6.11117 20.6211 6.14589 21.2391 6.21534 21.7994C6.28478 22.3594 6.40742 22.9543 6.58325 23.584ZM15.722 23.584H24.3053C24.4073 22.8248 24.4745 22.1744 24.507 21.6327C24.5392 21.0911 24.5553 20.5286 24.5553 19.9452C24.5553 19.3802 24.5392 18.8362 24.507 18.3132C24.4745 17.7901 24.4073 17.1488 24.3053 16.3894H15.722C15.6203 17.1488 15.5533 17.7901 15.5208 18.3132C15.4883 18.8362 15.472 19.3802 15.472 19.9452C15.472 20.5286 15.4883 21.0911 15.5208 21.6327C15.5533 22.1744 15.6203 22.8248 15.722 23.584ZM27.0833 23.584H33.4166C33.5924 22.9543 33.7151 22.3594 33.7845 21.7994C33.854 21.2391 33.8887 20.6211 33.8887 19.9452C33.8887 19.2691 33.854 18.665 33.7845 18.1327C33.7151 17.6002 33.5924 17.0191 33.4166 16.3894H27.1112C27.1945 17.2227 27.2523 17.9011 27.2845 18.4244C27.317 18.9475 27.3333 19.4544 27.3333 19.9452C27.3333 20.5469 27.3124 21.1186 27.2708 21.6602C27.2291 22.2019 27.1666 22.8432 27.0833 23.584ZM26.5833 13.6119H32.3887C31.5092 11.8711 30.3356 10.4034 28.8678 9.20898C27.4003 8.01454 25.7128 7.15801 23.8053 6.6394C24.4351 7.63024 24.9745 8.68815 25.4237 9.81315C25.8726 10.9382 26.2591 12.2044 26.5833 13.6119ZM16.2778 13.6119H23.7778C23.4628 12.223 22.9767 10.8897 22.3195 9.6119C21.662 8.33412 20.8888 7.17662 19.9999 6.1394C19.1666 6.97274 18.4583 7.97746 17.8749 9.15357C17.2916 10.3294 16.7592 11.8155 16.2778 13.6119ZM7.61117 13.6119H13.4445C13.7314 12.26 14.0948 11.0261 14.5345 9.91024C14.9745 8.79468 15.5185 7.71371 16.1666 6.66732C14.2591 7.18593 12.5855 8.03315 11.1458 9.20898C9.70603 10.3848 8.52784 11.8525 7.61117 13.6119Z" fill="#1C1B1F"/>
</g>
</svg>
