<svg width="40" height="40" viewBox="0 0 40 40" fill="none" xmlns="http://www.w3.org/2000/svg">
<mask id="mask0_177_58" style="mask-type:alpha" maskUnits="userSpaceOnUse" x="0" y="0" width="40" height="40">
<rect width="40" height="40" fill="#D9D9D9"/>
</mask>
<g mask="url(#mask0_177_58)">
<path d="M11.7221 33.3327L5 26.6106L11.7221 19.8881L13.6804 21.8327L10.2917 25.2214H20.5554V27.9993H10.2917L13.6667 31.3881L11.7221 33.3327ZM24.7221 27.9993C24.3426 27.9993 24.0163 27.8628 23.7429 27.5898C23.4699 27.3164 23.3333 26.99 23.3333 26.6106C23.3333 26.2123 23.4699 25.8812 23.7429 25.6173C24.0163 25.3534 24.3426 25.2214 24.7221 25.2214C25.1204 25.2214 25.4515 25.3534 25.7154 25.6173C25.9793 25.8812 26.1112 26.2123 26.1112 26.6106C26.1112 26.99 25.9793 27.3164 25.7154 27.5898C25.4515 27.8628 25.1204 27.9993 24.7221 27.9993ZM30.2779 27.9993C29.8982 27.9993 29.5718 27.8628 29.2987 27.5898C29.0254 27.3164 28.8888 26.99 28.8888 26.6106C28.8888 26.2123 29.0254 25.8812 29.2987 25.6173C29.5718 25.3534 29.8982 25.2214 30.2779 25.2214C30.676 25.2214 31.0069 25.3534 31.2708 25.6173C31.5347 25.8812 31.6667 26.2123 31.6667 26.6106C31.6667 26.99 31.5347 27.3164 31.2708 27.5898C31.0069 27.8628 30.676 27.9993 30.2779 27.9993ZM28.2779 20.1106L26.3196 18.166L29.7083 14.7773H19.4446V11.9993H29.7083L26.3333 8.6106L28.2779 6.66602L35 13.3881L28.2779 20.1106ZM9.72208 14.7773C9.34264 14.7773 9.01625 14.6406 8.74292 14.3673C8.46986 14.0942 8.33333 13.7678 8.33333 13.3881C8.33333 12.99 8.46986 12.6591 8.74292 12.3952C9.01625 12.1313 9.34264 11.9993 9.72208 11.9993C10.1204 11.9993 10.4515 12.1313 10.7154 12.3952C10.9793 12.6591 11.1113 12.99 11.1113 13.3881C11.1113 13.7678 10.9793 14.0942 10.7154 14.3673C10.4515 14.6406 10.1204 14.7773 9.72208 14.7773ZM15.2779 14.7773C14.8982 14.7773 14.5718 14.6406 14.2988 14.3673C14.0254 14.0942 13.8888 13.7678 13.8888 13.3881C13.8888 12.99 14.0254 12.6591 14.2988 12.3952C14.5718 12.1313 14.8982 11.9993 15.2779 11.9993C15.676 11.9993 16.0069 12.1313 16.2708 12.3952C16.5347 12.6591 16.6667 12.99 16.6667 13.3881C16.6667 13.7678 16.5347 14.0942 16.2708 14.3673C16.0069 14.6406 15.676 14.7773 15.2779 14.7773Z" fill="#1C1B1F"/>
</g>
</svg>
