<svg width="16" height="16" viewBox="0 0 16 16" fill="none" xmlns="http://www.w3.org/2000/svg">
<path d="M6.95312 2.08984L7.64687 1.39609C7.94062 1.10234 8.41563 1.10234 8.70625 1.39609L14.7812 7.46797C15.075 7.76172 15.075 8.23672 14.7812 8.52734L8.70625 14.6023C8.4125 14.8961 7.9375 14.8961 7.64687 14.6023L6.95312 13.9086C6.65625 13.6117 6.6625 13.1273 6.96562 12.8367L10.7312 9.24922H1.75C1.33437 9.24922 1 8.91484 1 8.49922V7.49922C1 7.08359 1.33437 6.74922 1.75 6.74922H10.7312L6.96562 3.16172C6.65937 2.87109 6.65312 2.38672 6.95312 2.08984Z" fill="#E6EEF5"/>
</svg>
