<svg width="40" height="40" viewBox="0 0 40 40" fill="none" xmlns="http://www.w3.org/2000/svg">
<mask id="mask0_127_140" style="mask-type:alpha" maskUnits="userSpaceOnUse" x="0" y="0" width="40" height="40">
<rect width="40" height="40" fill="#D9D9D9"/>
</mask>
<g mask="url(#mask0_127_140)">
<path d="M20 36.6673L5 28.1673V11.5286L20 3.33398L35 11.5286V28.1673L20 36.6673ZM15.2221 15.7507C15.861 15.1026 16.5925 14.5841 17.4167 14.1952C18.2408 13.8063 19.1019 13.6119 20 13.6119C20.8981 13.6119 21.7592 13.8063 22.5833 14.1952C23.4075 14.5841 24.139 15.1026 24.7779 15.7507L30.6946 12.3202L20 6.55607L9.30542 12.3202L15.2221 15.7507ZM18.6113 32.6952V26.2369C17.1482 25.848 15.949 25.0841 15.0138 23.9452C14.0787 22.8063 13.6113 21.4915 13.6113 20.0007C13.6113 19.6951 13.6297 19.3919 13.6667 19.0911C13.7036 18.79 13.7731 18.4913 13.875 18.1952L7.77792 14.6394V26.5423L18.6113 32.6952ZM20 23.6119C21.0092 23.6119 21.8633 23.2623 22.5625 22.5632C23.2617 21.864 23.6112 21.0098 23.6112 20.0007C23.6112 18.9915 23.2617 18.1373 22.5625 17.4382C21.8633 16.739 21.0092 16.3894 20 16.3894C18.9908 16.3894 18.1367 16.739 17.4375 17.4382C16.7383 18.1373 16.3888 18.9915 16.3888 20.0007C16.3888 21.0098 16.7383 21.864 17.4375 22.5632C18.1367 23.2623 18.9908 23.6119 20 23.6119ZM21.3888 32.6952L32.2221 26.5423V14.6394L26.125 18.1952C26.2269 18.4913 26.2964 18.79 26.3333 19.0911C26.3703 19.3919 26.3888 19.6951 26.3888 20.0007C26.3888 21.4915 25.9212 22.8063 24.9862 23.9452C24.051 25.0841 22.8518 25.848 21.3888 26.2369V32.6952Z" fill="#1C1B1F"/>
</g>
</svg>
