<svg width="40" height="40" viewBox="0 0 40 40" fill="none" xmlns="http://www.w3.org/2000/svg">
<mask id="mask0_5_43" style="mask-type:alpha" maskUnits="userSpaceOnUse" x="0" y="0" width="40" height="40">
<rect width="40" height="40" fill="#D9D9D9"/>
</mask>
<g mask="url(#mask0_5_43)">
<path d="M18.6113 36.6667V31.7221H21.3888V36.6667H18.6113ZM3.33337 21.3888V18.6112H8.27796V21.3888H3.33337ZM31.7221 21.3888V18.6112H36.6667V21.3888H31.7221ZM30.528 32.7779L27.0834 29.3333L29.0555 27.3613L32.5 30.8054L30.528 32.7779ZM9.47213 32.7779L7.50004 30.8054L10.9446 27.3613L12.9167 29.3333L9.47213 32.7779ZM20 27.8333C17.8425 27.8333 15.9977 27.0671 14.4655 25.5346C12.933 24.0024 12.1667 22.1575 12.1667 20C12.1667 18.6481 12.4607 17.4189 13.0488 16.3125C13.6366 15.2061 14.4537 14.2871 15.5 13.5554V5H24.5V13.5554C25.5464 14.2871 26.3635 15.2061 26.9513 16.3125C27.5394 17.4189 27.8334 18.6481 27.8334 20C27.8334 22.1575 27.0671 24.0024 25.5346 25.5346C24.0024 27.0671 22.1575 27.8333 20 27.8333ZM18.278 12.4721C18.5649 12.3982 18.8518 12.3426 19.1388 12.3054C19.426 12.2685 19.7131 12.25 20 12.25C20.287 12.25 20.5741 12.2685 20.8613 12.3054C21.1482 12.3426 21.4352 12.3982 21.7221 12.4721V7.77792H18.278V12.4721ZM20.0034 25.0554C21.4087 25.0554 22.602 24.5636 23.5834 23.58C24.5648 22.5964 25.0555 21.4019 25.0555 19.9967C25.0555 18.5914 24.5637 17.3981 23.58 16.4167C22.5964 15.4353 21.402 14.9446 19.9967 14.9446C18.5914 14.9446 17.3981 15.4364 16.4167 16.42C15.4353 17.4036 14.9446 18.5981 14.9446 20.0033C14.9446 21.4086 15.4364 22.6019 16.42 23.5833C17.4037 24.5647 18.5981 25.0554 20.0034 25.0554Z" fill="#005BAC"/>
</g>
</svg>
